<svg width="40" height="40" viewBox="0 0 40 40" fill="none" xmlns="http://www.w3.org/2000/svg">
<rect width="40" height="40" rx="4" fill="#F2F7FD"/>
<path d="M32.6537 10.3067L26.667 6.89335C26.4643 6.77633 26.2344 6.71472 26.0003 6.71472C25.7663 6.71472 25.5364 6.77633 25.3337 6.89335L20.0003 9.93335L14.667 6.89335C14.4643 6.77633 14.2344 6.71472 14.0003 6.71472C13.7663 6.71472 13.5364 6.77633 13.3337 6.89335L7.34699 10.3067C7.14104 10.4225 6.96954 10.5909 6.85006 10.7947C6.73058 10.9985 6.6674 11.2304 6.66699 11.4667V18.2934C6.6674 18.5296 6.73058 18.7615 6.85006 18.9653C6.96954 19.1692 7.14104 19.3376 7.34699 19.4534L12.6803 22.48V28.5334C12.6807 28.7696 12.7439 29.0015 12.8634 29.2053C12.9829 29.4092 13.1544 29.5776 13.3603 29.6934L19.3603 33.1067C19.563 33.2237 19.7929 33.2853 20.027 33.2853C20.261 33.2853 20.491 33.2237 20.6937 33.1067L26.667 29.6934C26.8729 29.5776 27.0444 29.4092 27.1639 29.2053C27.2834 29.0015 27.3466 28.7696 27.347 28.5334V22.48L32.6803 19.4534C32.8863 19.3376 33.0578 19.1692 33.1773 18.9653C33.2967 18.7615 33.3599 18.5296 33.3603 18.2934V11.4667C33.3573 11.2278 33.2901 10.994 33.1658 10.79C33.0415 10.5859 32.8646 10.419 32.6537 10.3067ZM9.33366 17.52V12.1867L14.0003 9.52002L18.667 12.1867V17.52L14.0003 20.1867L9.33366 17.52ZM24.667 27.76L20.0003 30.4267L15.3337 27.76V22.4267L20.0003 19.76L24.667 22.4267V27.76ZM30.667 17.52L26.0003 20.1867L21.3337 17.52V12.1867L26.0003 9.52002L30.667 12.1867V17.52Z" fill="#003666"/>
</svg>
