<svg width="40" height="40" viewBox="0 0 40 40" fill="none" xmlns="http://www.w3.org/2000/svg">
<rect width="40" height="40" rx="4" fill="#F2F7FD"/>
<path d="M31.8271 27L28.2138 20.76C28.9532 19.402 29.3383 17.8796 29.3338 16.3333C29.3338 13.858 28.3504 11.484 26.6001 9.73367C24.8497 7.98333 22.4758 7 20.0004 7C17.5251 7 15.1511 7.98333 13.4008 9.73367C11.6504 11.484 10.6671 13.858 10.6671 16.3333C10.6625 17.8796 11.0477 19.402 11.7871 20.76L8.17376 27C8.0565 27.2031 7.99489 27.4335 7.99512 27.668C7.99535 27.9025 8.05742 28.1328 8.17508 28.3356C8.29273 28.5385 8.4618 28.7067 8.66523 28.8234C8.86866 28.94 9.09926 29.0009 9.33376 29H13.1604L15.1071 32.28C15.1727 32.3887 15.2535 32.4875 15.3471 32.5733C15.5943 32.8116 15.9238 32.9453 16.2671 32.9467H16.4538C16.655 32.9191 16.8474 32.8459 17.0161 32.7327C17.1848 32.6195 17.3253 32.4692 17.4271 32.2933L20.0004 27.8667L22.5738 32.3333C22.677 32.5067 22.8182 32.6544 22.9868 32.7653C23.1554 32.8761 23.347 32.9473 23.5471 32.9733H23.7338C24.0817 32.9754 24.4166 32.8414 24.6671 32.6C24.7568 32.519 24.8332 32.4246 24.8938 32.32L26.8404 29.04H30.6671C30.902 29.0409 31.1331 28.9798 31.3368 28.8627C31.5405 28.7456 31.7096 28.5768 31.8271 28.3733C31.9517 28.166 32.0175 27.9286 32.0175 27.6867C32.0175 27.4447 31.9517 27.2074 31.8271 27ZM16.2538 29.04L15.0671 27.0533C14.9502 26.8562 14.7846 26.6926 14.5861 26.5781C14.3875 26.4637 14.1629 26.4023 13.9338 26.4H11.6271L13.5338 23.0933C14.8467 24.3585 16.5015 25.2114 18.2938 25.5467L16.2538 29.04ZM20.0004 23C18.6819 23 17.3929 22.609 16.2966 21.8765C15.2003 21.1439 14.3458 20.1027 13.8412 18.8846C13.3366 17.6664 13.2046 16.3259 13.4619 15.0327C13.7191 13.7395 14.354 12.5516 15.2864 11.6193C16.2187 10.6869 17.4066 10.052 18.6998 9.79476C19.993 9.53753 21.3335 9.66955 22.5516 10.1741C23.7698 10.6787 24.811 11.5332 25.5436 12.6295C26.2761 13.7259 26.6671 15.0148 26.6671 16.3333C26.6671 18.1014 25.9647 19.7971 24.7145 21.0474C23.4642 22.2976 21.7685 23 20.0004 23ZM26.0671 26.4C25.838 26.4023 25.6133 26.4637 25.4148 26.5781C25.2163 26.6926 25.0506 26.8562 24.9338 27.0533L23.7471 29.04L21.7204 25.5067C23.5064 25.1645 25.155 24.3124 26.4671 23.0533L28.3738 26.36L26.0671 26.4Z" fill="#003666"/>
</svg>
