<svg width="40" height="40" viewBox="0 0 40 40" fill="none" xmlns="http://www.w3.org/2000/svg">
<rect width="40" height="40" rx="4" fill="#F2F7FD"/>
<path d="M18.6663 16C18.6663 16.3536 18.8068 16.6927 19.0569 16.9428C19.3069 17.1928 19.6461 17.3333 19.9997 17.3333C20.3533 17.3333 20.6924 17.1928 20.9425 16.9428C21.1925 16.6927 21.333 16.3536 21.333 16C21.333 15.6464 21.4735 15.3072 21.7235 15.0572C21.9736 14.8071 22.3127 14.6667 22.6663 14.6667H23.9997C24.3533 14.6667 24.6924 14.8071 24.9425 15.0572C25.1925 15.3072 25.333 15.6464 25.333 16V17.3333C25.333 17.6869 25.1925 18.0261 24.9425 18.2761C24.6924 18.5262 24.3533 18.6667 23.9997 18.6667H22.6663C21.6055 18.6667 20.5881 19.0881 19.8379 19.8382C19.0878 20.5884 18.6663 21.6058 18.6663 22.6667V26.6667C18.6663 27.0203 18.8068 27.3594 19.0569 27.6095C19.3069 27.8595 19.6461 28 19.9997 28H26.6663C27.02 28 27.3591 27.8595 27.6092 27.6095C27.8592 27.3594 27.9997 27.0203 27.9997 26.6667C27.9997 26.313 27.8592 25.9739 27.6092 25.7238C27.3591 25.4738 27.02 25.3333 26.6663 25.3333H21.333V22.6667C21.333 22.313 21.4735 21.9739 21.7235 21.7238C21.9736 21.4738 22.3127 21.3333 22.6663 21.3333H23.9997C25.0605 21.3333 26.078 20.9119 26.8281 20.1617C27.5783 19.4116 27.9997 18.3942 27.9997 17.3333V16C27.9997 14.9391 27.5783 13.9217 26.8281 13.1716C26.078 12.4214 25.0605 12 23.9997 12H22.6663C21.6055 12 20.5881 12.4214 19.8379 13.1716C19.0878 13.9217 18.6663 14.9391 18.6663 16ZM27.9997 10.6667H29.333V12C29.333 12.3536 29.4735 12.6927 29.7235 12.9428C29.9736 13.1928 30.3127 13.3333 30.6663 13.3333C31.02 13.3333 31.3591 13.1928 31.6092 12.9428C31.8592 12.6927 31.9997 12.3536 31.9997 12V10.6667H33.333C33.6866 10.6667 34.0258 10.5262 34.2758 10.2761C34.5259 10.0261 34.6663 9.68694 34.6663 9.33332C34.6663 8.9797 34.5259 8.64056 34.2758 8.39051C34.0258 8.14047 33.6866 7.99999 33.333 7.99999H31.9997V6.66666C31.9997 6.31303 31.8592 5.9739 31.6092 5.72385C31.3591 5.4738 31.02 5.33332 30.6663 5.33332C30.3127 5.33332 29.9736 5.4738 29.7235 5.72385C29.4735 5.9739 29.333 6.31303 29.333 6.66666V7.99999H27.9997C27.6461 7.99999 27.3069 8.14047 27.0569 8.39051C26.8068 8.64056 26.6663 8.9797 26.6663 9.33332C26.6663 9.68694 26.8068 10.0261 27.0569 10.2761C27.3069 10.5262 27.6461 10.6667 27.9997 10.6667ZM13.333 13.3333V26.6667C13.333 27.0203 13.4735 27.3594 13.7235 27.6095C13.9736 27.8595 14.3127 28 14.6663 28C15.02 28 15.3591 27.8595 15.6092 27.6095C15.8592 27.3594 15.9997 27.0203 15.9997 26.6667V13.3333C15.9997 12.9797 15.8592 12.6406 15.6092 12.3905C15.3591 12.1405 15.02 12 14.6663 12C14.3127 12 13.9736 12.1405 13.7235 12.3905C13.4735 12.6406 13.333 12.9797 13.333 13.3333ZM32.7997 16C32.6281 16.035 32.465 16.1034 32.3199 16.2014C32.1747 16.2995 32.0503 16.4251 31.9537 16.5712C31.8572 16.7173 31.7903 16.881 31.757 17.053C31.7237 17.2249 31.7246 17.4017 31.7597 17.5733C32.2803 20.1016 31.9717 22.7303 30.8798 25.0694C29.788 27.4084 27.9709 29.3329 25.6985 30.5574C23.4261 31.7819 20.8194 32.2409 18.2654 31.8665C15.7114 31.492 13.3462 30.304 11.521 28.4787C9.6957 26.6534 8.50766 24.2883 8.13319 21.7342C7.75872 19.1802 8.21779 16.5736 9.44226 14.3011C10.6667 12.0287 12.5913 10.2117 14.9303 9.11984C17.2693 8.02795 19.8981 7.7194 22.4263 8.23999C22.78 8.31071 23.1472 8.23807 23.4473 8.03803C23.7473 7.83799 23.9556 7.52694 24.0263 7.17332C24.0971 6.8197 24.0244 6.45247 23.8244 6.15241C23.6243 5.85235 23.3133 5.64405 22.9597 5.57332C21.9839 5.39152 20.992 5.3111 19.9997 5.33332C17.0989 5.33332 14.2632 6.19351 11.8513 7.8051C9.4394 9.4167 7.55953 11.7073 6.44945 14.3873C5.33936 17.0673 5.04891 20.0163 5.61483 22.8613C6.18075 25.7064 7.57761 28.3197 9.62878 30.3709C11.68 32.4221 14.2933 33.8189 17.1384 34.3848C19.9834 34.9508 22.9324 34.6603 25.6124 33.5502C28.2924 32.4401 30.583 30.5603 32.1946 28.1484C33.8062 25.7364 34.6663 22.9008 34.6663 20C34.6692 19.0148 34.5709 18.0318 34.373 17.0667C34.3411 16.8926 34.2748 16.7267 34.1781 16.5786C34.0814 16.4304 33.9562 16.303 33.8098 16.2037C33.6634 16.1045 33.4986 16.0353 33.3252 16.0003C33.1518 15.9654 32.9731 15.9652 32.7997 16Z" fill="#003666"/>
</svg>
