<svg width="20" height="20" viewBox="0 0 20 20" fill="none" xmlns="http://www.w3.org/2000/svg">
<path fill-rule="evenodd" clip-rule="evenodd" d="M9.99984 8.54167C9.19442 8.54167 8.5415 9.19459 8.5415 10C8.5415 10.8054 9.19442 11.4583 9.99984 11.4583C10.8053 11.4583 11.4582 10.8054 11.4582 10C11.4582 9.19459 10.8053 8.54167 9.99984 8.54167ZM7.2915 10C7.2915 8.50423 8.50407 7.29167 9.99984 7.29167C11.4956 7.29167 12.7082 8.50423 12.7082 10C12.7082 11.4958 11.4956 12.7083 9.99984 12.7083C8.50407 12.7083 7.2915 11.4958 7.2915 10Z" fill="#F4F8FF"/>
<path fill-rule="evenodd" clip-rule="evenodd" d="M9.7915 8.54167C7.26018 8.54167 5.20817 10.5937 5.20817 13.125C5.20817 15.6563 7.26018 17.7083 9.7915 17.7083C10.1367 17.7083 10.4165 17.9882 10.4165 18.3333C10.4165 18.6785 10.1367 18.9583 9.7915 18.9583C6.56983 18.9583 3.95817 16.3467 3.95817 13.125C3.95817 9.90332 6.56983 7.29167 9.7915 7.29167C10.1367 7.29167 10.4165 7.57149 10.4165 7.91667C10.4165 8.26185 10.1367 8.54167 9.7915 8.54167Z" fill="#F4F8FF"/>
<path fill-rule="evenodd" clip-rule="evenodd" d="M7.9165 9.16667C8.26168 9.16667 8.5415 9.44649 8.5415 9.79167C8.5415 12.323 10.5935 14.375 13.1248 14.375C15.6562 14.375 17.7082 12.323 17.7082 9.79167C17.7082 9.44649 17.988 9.16667 18.3332 9.16667C18.6783 9.16667 18.9582 9.44649 18.9582 9.79167C18.9582 13.0133 16.3465 15.625 13.1248 15.625C9.90316 15.625 7.2915 13.0133 7.2915 9.79167C7.2915 9.44649 7.57133 9.16667 7.9165 9.16667Z" fill="#F4F8FF"/>
<path fill-rule="evenodd" clip-rule="evenodd" d="M9.1665 1.66667C9.1665 1.32149 9.44633 1.04167 9.7915 1.04167C13.0132 1.04167 15.6248 3.65334 15.6248 6.875C15.6248 10.0967 13.0132 12.7083 9.7915 12.7083C9.44633 12.7083 9.1665 12.4285 9.1665 12.0833C9.1665 11.7382 9.44633 11.4583 9.7915 11.4583C12.3228 11.4583 14.3748 9.40632 14.3748 6.875C14.3748 4.34369 12.3228 2.29167 9.7915 2.29167C9.44633 2.29167 9.1665 2.01185 9.1665 1.66667Z" fill="#F4F8FF"/>
<path fill-rule="evenodd" clip-rule="evenodd" d="M1.0415 9.79167C1.0415 6.56999 3.65318 3.95833 6.87484 3.95833C10.0965 3.95833 12.7082 6.56999 12.7082 9.79167C12.7082 10.1368 12.4283 10.4167 12.0832 10.4167C11.738 10.4167 11.4582 10.1368 11.4582 9.79167C11.4582 7.26035 9.40616 5.20833 6.87484 5.20833C4.34353 5.20833 2.2915 7.26035 2.2915 9.79167C2.2915 10.1368 2.01168 10.4167 1.6665 10.4167C1.32133 10.4167 1.0415 10.1368 1.0415 9.79167Z" fill="#F4F8FF"/>
</svg>
