<svg width="20" height="20" viewBox="0 0 20 20" fill="none" xmlns="http://www.w3.org/2000/svg">
<path d="M18.3333 -1.63706e-05C17.8913 -1.63706e-05 17.4674 0.175579 17.1548 0.488139C16.8422 0.8007 16.6667 1.22462 16.6667 1.66665V14.3167L2.84998 0.483317C2.53614 0.169477 2.11049 -0.00683594 1.66665 -0.00683594C1.22281 -0.00683593 0.797157 0.169477 0.483317 0.483317C0.169477 0.797157 -0.00683593 1.22281 -0.00683594 1.66665C-0.00683594 2.11049 0.169477 2.53614 0.483317 2.84998L14.3167 16.6667H1.66665C1.22462 16.6667 0.8007 16.8422 0.488139 17.1548C0.175579 17.4674 -1.63706e-05 17.8913 -1.63706e-05 18.3333C-1.63706e-05 18.7753 0.175579 19.1993 0.488139 19.5118C0.8007 19.8244 1.22462 20 1.66665 20H18.3333C18.5511 19.9974 18.7663 19.9521 18.9667 19.8667C19.3739 19.6975 19.6975 19.3739 19.8667 18.9667C19.9521 18.7663 19.9974 18.5511 20 18.3333V1.66665C20 1.22462 19.8244 0.8007 19.5118 0.488139C19.1993 0.175579 18.7753 -1.63706e-05 18.3333 -1.63706e-05Z" fill="#003666"/>
</svg>
