<svg width="56" height="56" viewBox="0 0 56 56" fill="none" xmlns="http://www.w3.org/2000/svg">
<path d="M25.6664 21.0001C25.6664 21.619 25.9122 22.2125 26.3498 22.65C26.7874 23.0876 27.3808 23.3335 27.9997 23.3335C28.6185 23.3335 29.212 23.0876 29.6496 22.65C30.0872 22.2125 30.333 21.619 30.333 21.0001C30.333 20.3813 30.5789 19.7878 31.0164 19.3502C31.454 18.9126 32.0475 18.6668 32.6664 18.6668H34.9997C35.6185 18.6668 36.212 18.9126 36.6496 19.3502C37.0872 19.7878 37.333 20.3813 37.333 21.0001V23.3335C37.333 23.9523 37.0872 24.5458 36.6496 24.9834C36.212 25.421 35.6185 25.6668 34.9997 25.6668H32.6664C30.8098 25.6668 29.0294 26.4043 27.7166 27.7171C26.4038 29.0298 25.6664 30.8103 25.6664 32.6668V39.6668C25.6664 40.2856 25.9122 40.8791 26.3498 41.3167C26.7874 41.7543 27.3808 42.0001 27.9997 42.0001H39.6664C40.2852 42.0001 40.8787 41.7543 41.3163 41.3167C41.7539 40.8791 41.9997 40.2856 41.9997 39.6668C41.9997 39.048 41.7539 38.4545 41.3163 38.0169C40.8787 37.5793 40.2852 37.3335 39.6664 37.3335H30.333V32.6668C30.333 32.048 30.5789 31.4545 31.0164 31.0169C31.454 30.5793 32.0475 30.3335 32.6664 30.3335H34.9997C36.8562 30.3335 38.6367 29.596 39.9494 28.2832C41.2622 26.9705 41.9997 25.19 41.9997 23.3335V21.0001C41.9997 19.1436 41.2622 17.3631 39.9494 16.0504C38.6367 14.7376 36.8562 14.0001 34.9997 14.0001H32.6664C30.8098 14.0001 29.0294 14.7376 27.7166 16.0504C26.4038 17.3631 25.6664 19.1436 25.6664 21.0001ZM41.9997 11.6668H44.333V14.0001C44.333 14.619 44.5788 15.2125 45.0164 15.65C45.454 16.0876 46.0475 16.3335 46.6664 16.3335C47.2852 16.3335 47.8787 16.0876 48.3163 15.65C48.7539 15.2125 48.9997 14.619 48.9997 14.0001V11.6668H51.333C51.9519 11.6668 52.5454 11.421 52.9829 10.9834C53.4205 10.5458 53.6664 9.95231 53.6664 9.33347C53.6664 8.71463 53.4205 8.12114 52.9829 7.68355C52.5454 7.24597 51.9519 7.00013 51.333 7.00013H48.9997V4.6668C48.9997 4.04796 48.7539 3.45447 48.3163 3.01688C47.8787 2.5793 47.2852 2.33347 46.6664 2.33347C46.0475 2.33347 45.454 2.5793 45.0164 3.01688C44.5788 3.45447 44.333 4.04796 44.333 4.6668V7.00013H41.9997C41.3808 7.00013 40.7874 7.24597 40.3498 7.68355C39.9122 8.12114 39.6664 8.71463 39.6664 9.33347C39.6664 9.95231 39.9122 10.5458 40.3498 10.9834C40.7874 11.421 41.3808 11.6668 41.9997 11.6668ZM16.333 16.3335V39.6668C16.333 40.2856 16.5789 40.8791 17.0164 41.3167C17.454 41.7543 18.0475 42.0001 18.6664 42.0001C19.2852 42.0001 19.8787 41.7543 20.3163 41.3167C20.7539 40.8791 20.9997 40.2856 20.9997 39.6668V16.3335C20.9997 15.7146 20.7539 15.1211 20.3163 14.6836C19.8787 14.246 19.2852 14.0001 18.6664 14.0001C18.0475 14.0001 17.454 14.246 17.0164 14.6836C16.5789 15.1211 16.333 15.7146 16.333 16.3335ZM50.3997 21.0001C50.0994 21.0614 49.8141 21.1812 49.56 21.3527C49.306 21.5242 49.0883 21.7441 48.9193 21.9998C48.7503 22.2554 48.6333 22.5419 48.575 22.8428C48.5168 23.1437 48.5183 23.4532 48.5797 23.7535C49.4907 28.1779 48.9508 32.7783 47.04 36.8715C45.1292 40.9648 41.9494 44.3328 37.9727 46.4756C33.9959 48.6184 29.4342 49.4218 24.9647 48.7665C20.4952 48.1112 16.3562 46.0321 13.1619 42.8379C9.96773 39.6437 7.88865 35.5046 7.23333 31.0351C6.57801 26.5656 7.38138 22.0039 9.52419 18.0272C11.667 14.0504 15.035 10.8707 19.1283 8.95986C23.2216 7.04907 27.8219 6.50911 32.2464 7.42013C32.8652 7.5439 33.5078 7.41677 34.033 7.0667C34.5581 6.71663 34.9226 6.17231 35.0464 5.55347C35.1701 4.93463 35.043 4.29197 34.6929 3.76687C34.3428 3.24177 33.7985 2.87723 33.1797 2.75347C31.4721 2.43532 29.7362 2.29457 27.9997 2.33347C22.9233 2.33347 17.9609 3.83879 13.74 6.65908C9.51919 9.47937 6.22943 13.488 4.28678 18.1779C2.34413 22.8679 1.83584 28.0286 2.8262 33.0075C3.81655 37.9863 6.26106 42.5597 9.85061 46.1492C13.4402 49.7388 18.0135 52.1833 22.9924 53.1736C27.9712 54.164 33.1319 53.6557 37.8219 51.713C42.5119 49.7704 46.5205 46.4806 49.3407 42.2598C52.161 38.0389 53.6664 33.0765 53.6664 28.0001C53.6713 26.276 53.4993 24.5558 53.153 22.8668C53.0971 22.5623 52.9812 22.2719 52.812 22.0127C52.6428 21.7534 52.4236 21.5304 52.1674 21.3567C51.9111 21.183 51.6229 21.062 51.3194 21.0007C51.0159 20.9395 50.7033 20.9393 50.3997 21.0001Z" fill="#003666"/>
</svg>
