<svg width="22" height="22" viewBox="0 0 22 22" fill="none" xmlns="http://www.w3.org/2000/svg">
<path d="M0.823242 10.0732C0.823242 4.96461 4.96463 0.823227 10.0732 0.823227C15.1819 0.823227 19.3232 4.96461 19.3232 10.0732C19.3232 15.1818 15.1819 19.3232 10.0732 19.3232C4.96463 19.3232 0.823242 15.1818 0.823242 10.0732ZM10.0732 2.32323C5.79306 2.32323 2.32324 5.79304 2.32324 10.0732C2.32324 14.3534 5.79306 17.8232 10.0732 17.8232C14.3534 17.8232 17.8232 14.3534 17.8232 10.0732C17.8232 5.79304 14.3534 2.32323 10.0732 2.32323Z" fill="#005BAC"/>
<path d="M6.71448 6.21443C7.57328 5.35569 8.7618 4.82323 10.0732 4.82323C11.3847 4.82323 12.5732 5.35569 13.432 6.21445C13.7249 6.50734 13.7249 6.98221 13.432 7.27511C13.1391 7.568 12.6642 7.568 12.3713 7.27511C11.7824 6.68616 10.9709 6.32323 10.0732 6.32323C9.17559 6.32323 8.36411 6.68616 7.7751 7.27513C7.4822 7.56801 7.00733 7.56799 6.71444 7.27509C6.42156 6.98218 6.42158 6.50731 6.71448 6.21443Z" fill="#005BAC"/>
<path d="M15.6538 15.6538C15.9467 15.3609 16.4216 15.3609 16.7145 15.6538L20.9571 19.8964C21.25 20.1893 21.25 20.6642 20.9571 20.9571C20.6642 21.25 20.1894 21.25 19.8965 20.9571L15.6538 16.7145C15.3609 16.4216 15.3609 15.9467 15.6538 15.6538Z" fill="#005BAC"/>
</svg>
