<svg width="20" height="20" viewBox="0 0 20 20" fill="none" xmlns="http://www.w3.org/2000/svg">
<path d="M-1.63706e-05 1.66668C-1.63706e-05 2.10871 0.175579 2.53263 0.488139 2.84519C0.8007 3.15776 1.22462 3.33335 1.66665 3.33335H14.3167L0.483317 17.15C0.169477 17.4639 -0.00683594 17.8895 -0.00683594 18.3333C-0.00683593 18.7772 0.169477 19.2028 0.483317 19.5167C0.797157 19.8305 1.22281 20.0068 1.66665 20.0068C2.11049 20.0068 2.53614 19.8305 2.84998 19.5167L16.6667 5.68335V18.3333C16.6667 18.7754 16.8422 19.1993 17.1548 19.5119C17.4674 19.8244 17.8913 20 18.3333 20C18.7753 20 19.1993 19.8244 19.5118 19.5119C19.8244 19.1993 20 18.7754 20 18.3333V1.66668C19.9974 1.44889 19.9521 1.23372 19.8667 1.03335C19.6975 0.626101 19.3739 0.302473 18.9667 0.133348C18.7663 0.0479464 18.5511 0.00264809 18.3333 1.47811e-05H1.66665C1.22462 1.47811e-05 0.8007 0.175608 0.488139 0.488169C0.175579 0.80073 -1.63706e-05 1.22465 -1.63706e-05 1.66668Z" fill="#003666"/>
</svg>
